<svg width="1024" height="1024" viewBox="0 0 1024 1024" fill="none" xmlns="http://www.w3.org/2000/svg">
  <defs>
    <linearGradient id="eta-bg" x1="176" y1="144" x2="864" y2="896" gradientUnits="userSpaceOnUse">
      <stop stop-color="#164E63"/>
      <stop offset="1" stop-color="#0F172A"/>
    </linearGradient>
    <linearGradient id="eta-glow" x1="256" y1="176" x2="768" y2="864" gradientUnits="userSpaceOnUse">
      <stop stop-color="#22D3EE" stop-opacity="0.28"/>
      <stop offset="1" stop-color="#F59E0B" stop-opacity="0.08"/>
    </linearGradient>
    <filter id="eta-shadow" x="92" y="92" width="840" height="840" filterUnits="userSpaceOnUse" color-interpolation-filters="sRGB">
      <feDropShadow dx="0" dy="22" stdDeviation="24" flood-color="#020617" flood-opacity="0.34"/>
    </filter>
  </defs>

  <g filter="url(#eta-shadow)">
    <rect x="112" y="112" width="800" height="800" rx="192" fill="url(#eta-bg)"/>
    <rect x="112" y="112" width="800" height="800" rx="192" fill="url(#eta-glow)"/>
    <rect x="112" y="112" width="800" height="800" rx="192" stroke="#334155" stroke-width="8"/>
  </g>

  <circle cx="760" cy="248" r="112" fill="#22D3EE" fill-opacity="0.08"/>
  <circle cx="284" cy="812" r="140" fill="#F59E0B" fill-opacity="0.08"/>

  <path
    d="M302 324L208 512L302 700"
    stroke="#FBBF24"
    stroke-width="68"
    stroke-linecap="round"
    stroke-linejoin="round"
  />

  <rect x="376" y="292" width="92" height="440" rx="42" fill="#F8FAFC"/>
  <rect x="376" y="292" width="326" height="92" rx="42" fill="#F8FAFC"/>
  <rect x="376" y="468" width="274" height="88" rx="40" fill="#F8FAFC"/>
  <rect x="376" y="640" width="326" height="92" rx="42" fill="#F8FAFC"/>

  <circle cx="748" cy="346" r="50" stroke="#22D3EE" stroke-width="40"/>
  <circle cx="650" cy="676" r="50" stroke="#22D3EE" stroke-width="40"/>
  <path
    d="M642 734L774 288"
    stroke="#22D3EE"
    stroke-width="58"
    stroke-linecap="round"
  />
</svg>
